<?xml version="1.0" encoding="UTF-8"?>
<!DOCTYPE svg PUBLIC "-//W3C//DTD SVG 1.1//EN" "http://www.w3.org/Graphics/SVG/1.1/DTD/svg11.dtd">
<!-- Creator: CorelDRAW 2020 (64-Bit) -->
<svg xmlns="http://www.w3.org/2000/svg" xml:space="preserve" width="585px" height="585px" version="1.1" style="shape-rendering:geometricPrecision; text-rendering:geometricPrecision; image-rendering:optimizeQuality; fill-rule:evenodd; clip-rule:evenodd"
viewBox="0 0 585 585"
 xmlns:xlink="http://www.w3.org/1999/xlink"
 xmlns:xodm="http://www.corel.com/coreldraw/odm/2003">
 <defs>
  <style type="text/css">
   <![CDATA[
    .fil0 {fill:#A8CF45}
   ]]>
  </style>
 </defs>
 <g id="Layer_x0020_1">
  <metadata id="CorelCorpID_0Corel-Layer"/>
  <g id="_2308008007840">
   <path class="fil0" d="M330.75 462.66l-31.03 -115.95c8.67,-1.14 16.74,-4.33 23.68,-9.09l64.31 101.06c20.99,-13.67 38.84,-31.72 52.24,-52.85l-104.02 -60.1c5.11,-6.65 8.72,-14.53 10.33,-23.17l116.93 25.99c2.37,-11.42 3.62,-23.24 3.62,-35.36 0,-13.36 -1.52,-26.37 -4.39,-38.87l-115.71 30.97c-1.14,-8.67 -4.33,-16.75 -9.09,-23.69l100.47 -63.93c-13.72,-20.71 -31.77,-38.33 -52.87,-51.56l-59.49 102.96c-7.56,-5.8 -16.7,-9.68 -26.74,-10.87l29.15 -115.04c-11.51,-2.39 -23.43,-3.64 -35.64,-3.64 -13.05,0 -25.77,1.44 -38,4.15l27.23 115.2c-8.54,1.72 -16.4,5.42 -23.03,10.65l-60.87 -102.17c-20.92,13.5 -38.75,31.35 -52.2,52.26l101.34 62.6c-4.63,6.94 -7.72,15.03 -8.76,23.8l-116.13 -29.42c-2.54,11.8 -3.89,24.04 -3.89,36.6 0,12.93 1.43,25.52 4.12,37.64l116.57 -27.55c1.71,8.53 5.42,16.39 10.65,23.02l-103.22 61.49c13.68,20.94 31.76,38.76 52.95,52.15l62.95 -101.91c5.99,4 12.84,6.85 20.24,8.22l-25.98 116.89c11.63,2.43 23.68,3.72 36.03,3.72 13.14,0 25.94,-1.46 38.25,-4.2z"/>
   <path class="fil0" d="M268.75 0l46.26 0 7.14 57.23c10.89,1.37 21.54,3.48 31.91,6.28l28.28 -50.28 42.81 17.49 -16.17 55.35c10.07,5.72 19.67,12.15 28.76,19.21l45.68 -35.52 32.7 32.7 -36.37 44.84c6.62,8.5 12.66,17.47 18.1,26.84l55.65 -15.59 17.9 42.65 -50.49 27.66c3.08,11.03 5.39,22.38 6.85,33.99l57.24 7.16 0 46.24 -57.24 5.97c-1.37,10.84 -3.49,21.49 -6.27,31.84l50.28 28.28 -17.49 42.81 -55.36 -16.17c-5.72,10.07 -12.14,19.67 -19.22,28.76l35.54 45.68 -32.7 32.7 -44.84 -36.37c-8.52,6.6 -17.47,12.65 -26.84,18.09l15.59 55.66 -42.65 17.9 -27.66 -50.49c-11.03,3.08 -22.38,5.39 -33.99,6.85l-7.16 57.24 -46.24 0 -5.97 -57.24c-10.84,-1.37 -21.45,-3.47 -31.79,-6.26l-27.18 50.75 -42.8 -17.49 15.05 -55.83c-10.06,-5.7 -19.66,-12.11 -28.76,-19.18l-44.84 36.37 -32.7 -32.7 35.54 -45.68c-6.62,-8.51 -12.68,-17.47 -18.12,-26.83l-55.2 16.69 -17.9 -42.65 50.02 -28.76c-3.08,-11.02 -5.39,-22.37 -6.85,-33.97l-57.25 -5.97 0 -46.26 57.23 -7.14c1.37,-10.87 3.46,-21.49 6.26,-31.86l-50.74 -27.18 17.49 -42.8 55.82 15.05c5.7,-10.06 12.12,-19.66 19.19,-28.76l-36.37 -44.84 32.7 -32.7 45.68 35.52c8.49,-6.61 17.47,-12.67 26.83,-18.1l-16.69 -55.2 42.65 -17.9 28.76 50.02c11.01,-3.09 22.37,-5.4 33.98,-6.86l5.96 -57.24zm23.75 104.35c103.62,0 188.14,84.52 188.14,188.15 0,103.62 -84.52,188.14 -188.14,188.14 -103.63,0 -188.15,-84.52 -188.15,-188.14 0,-103.63 84.52,-188.15 188.15,-188.15z"/>
  </g>
 </g>
</svg>
